<svg xmlns="http://www.w3.org/2000/svg" width="500" viewBox="0 0 375 375" height="500" version="1.0"><defs><clipPath id="a"><path d="M115 154h160v221H115Zm0 0"/></clipPath><clipPath id="b"><path d="M-59.36 237.863 51.73 44.29l238.387 136.805-111.09 193.574Zm0 0"/></clipPath><clipPath id="c"><path d="M-59.36 237.863 51.73 44.29l238.387 136.805-111.09 193.574Zm0 0"/></clipPath><clipPath id="d"><path d="M19 44h97v166H19Zm0 0"/></clipPath><clipPath id="e"><path d="M-59.36 237.863 51.73 44.29l238.387 136.805-111.09 193.574Zm0 0"/></clipPath><clipPath id="f"><path d="M-59.36 237.863 51.73 44.29l238.387 136.805-111.09 193.574Zm0 0"/></clipPath><clipPath id="g"><path d="M188 8h165v245H188Zm0 0"/></clipPath><clipPath id="h"><path d="m293.234 8.883 101.332 118.344-146.082 125.082-101.332-118.344Zm0 0"/></clipPath><clipPath id="i"><path d="m352.879 78.543-59.645-69.66-104.37 173.746 59.648 69.66Zm0 0"/></clipPath></defs><g clip-path="url(#a)"><g clip-path="url(#b)"><g clip-path="url(#c)"><path fill="#fff" d="m211.035 209.46-15.816 27.567-15.836 27.594-15.98-27.508-15.985-27.496-15.828 27.578-15.824 27.582 15.972 27.512 15.977 27.512 15.96 27.5 15.99 27.496 15.827-27.582 15.836-27.594 15.828-27.582 15.828-27.578 31.672-55.195-15.969-27.485-15.976-27.511-15.836 27.597Zm0 0"/></g></g></g><g clip-path="url(#d)"><g clip-path="url(#e)"><g clip-path="url(#f)"><path fill="#004aad" d="m115.465 154.594-15.977-27.512L83.52 99.598 51.566 44.574 35.73 72.172 19.902 99.754l15.977 27.508 15.976 27.511L67.84 182.27l15.96 27.5L99.63 182.19Zm0 0"/></g></g></g><g clip-path="url(#g)"><g clip-path="url(#h)"><g clip-path="url(#i)"><path fill="#fff" d="m293.234 8.883 101.332 118.344-146.082 125.082-101.332-118.344Zm0 0"/></g></g></g></svg>