<svg
  width="500"
  height="275"
  viewBox="0 0 500 275"
  fill="none"
  xmlns="http://www.w3.org/2000/svg"
>
  <g clip-path="url(#clip0_56_21)">
    <g filter="url(#filter0_d_56_21)">
      <path
        d="M499.928 235.747C489.006 237.479 481.283 283.378 445.459 269.021L445.459 36.1005C464.803 38.9233 476.295 -3.63748 499.928 2.82617L499.928 235.747Z"
        fill="url(#paint0_linear_56_21)"
        stroke="white"
        stroke-width="0.644329"></path>
      <path
        d="M485.807 66.6976C471.645 41.6793 466.743 31.95 455.021 11.8642L395.367 120.677C413.621 126.312 413.136 150.326 436.21 155.802L485.807 66.6976Z"
        fill="url(#paint1_linear_56_21)"
        stroke="white"
        stroke-width="0.644329"></path>
      <path
        d="M337.956 220.39C351.86 245.306 356.667 254.997 368.179 275L427.833 166.187C409.776 160.63 410.379 136.663 387.545 131.283L337.956 220.39Z"
        fill="url(#paint2_linear_56_21)"
        stroke="white"
        stroke-width="0.644329"></path>
      <path
        d="M249.193 64.5405C263.355 39.5222 268.257 29.7929 279.979 9.70706L339.633 118.52C321.379 124.155 321.864 148.169 298.79 153.645L249.193 64.5405Z"
        fill="url(#paint3_linear_56_21)"
        stroke="white"
        stroke-width="0.644329"></path>
      <path
        d="M235.072 233.59C245.994 235.322 253.717 281.221 289.541 266.864L289.541 33.9435C270.197 36.7663 258.705 -5.79446 235.072 0.669189L235.072 233.59Z"
        fill="url(#paint4_linear_56_21)"
        stroke="white"
        stroke-width="0.644329"></path>
      <path
        d="M397.044 218.233C383.14 243.149 378.333 252.84 366.821 272.843L307.167 164.03C325.224 158.473 324.621 134.506 347.455 129.126L397.044 218.233Z"
        fill="url(#paint5_linear_56_21)"
        stroke="white"
        stroke-width="0.644329"></path>
    </g>
    <g filter="url(#filter1_d_56_21)">
      <path
        d="M224.5 55L224.5 0L125.288 187.742C144.212 192.63 134.961 232.018 159.381 235.577L194.5 169L224.5 107L224.5 55Z"
        fill="url(#paint6_linear_56_21)"
        stroke="white"
        stroke-width="0.890754"></path>
      <path
        d="M168.822 217.809C154.519 243.523 149.714 254.356 137.875 275L77.6243 163.161C96.0615 157.37 95.5711 132.688 118.876 127.06L168.822 217.809Z"
        fill="url(#paint7_linear_56_21)"
        stroke="white"
        stroke-width="0.890754"></path>
      <path
        d="M8.8521 36.5561C31.4758 29.3459 30.3596 3.79243 50.1042 0.454819L110.355 112.294C91.9177 118.085 92.4081 142.767 69.1028 148.395L8.8521 36.5561Z"
        fill="url(#paint8_linear_56_21)"
        stroke="#003667"></path>
    </g>
  </g>
  <defs>
    <filter
      id="filter0_d_56_21"
      x="216.75"
      y="-3.32224"
      width="283.5"
      height="289.996"
      filterUnits="userSpaceOnUse"
      color-interpolation-filters="sRGB"
    >
      <feFlood flood-opacity="0" result="BackgroundImageFix"></feFlood>
      <feColorMatrix
        in="SourceAlpha"
        type="matrix"
        values="0 0 0 0 0 0 0 0 0 0 0 0 0 0 0 0 0 0 127 0"
        result="hardAlpha"></feColorMatrix>
      <feOffset dx="-11" dy="4"></feOffset>
      <feGaussianBlur stdDeviation="3.5"></feGaussianBlur>
      <feComposite in2="hardAlpha" operator="out"></feComposite>
      <feColorMatrix
        type="matrix"
        values="0 0 0 0 0 0 0 0 0 0 0 0 0 0 0 0 0 0 0.25 0"></feColorMatrix>
      <feBlend
        mode="normal"
        in2="BackgroundImageFix"
        result="effect1_dropShadow_56_21"></feBlend>
      <feBlend
        mode="normal"
        in="SourceGraphic"
        in2="effect1_dropShadow_56_21"
        result="shape"></feBlend>
    </filter>
    <filter
      id="filter1_d_56_21"
      x="-9.86743"
      y="-3.16354"
      width="234.831"
      height="290.101"
      filterUnits="userSpaceOnUse"
      color-interpolation-filters="sRGB"
    >
      <feFlood flood-opacity="0" result="BackgroundImageFix"></feFlood>
      <feColorMatrix
        in="SourceAlpha"
        type="matrix"
        values="0 0 0 0 0 0 0 0 0 0 0 0 0 0 0 0 0 0 127 0"
        result="hardAlpha"></feColorMatrix>
      <feOffset dx="-11" dy="4"></feOffset>
      <feGaussianBlur stdDeviation="3.5"></feGaussianBlur>
      <feComposite in2="hardAlpha" operator="out"></feComposite>
      <feColorMatrix
        type="matrix"
        values="0 0 0 0 0 0 0 0 0 0 0 0 0 0 0 0 0 0 0.25 0"></feColorMatrix>
      <feBlend
        mode="normal"
        in2="BackgroundImageFix"
        result="effect1_dropShadow_56_21"></feBlend>
      <feBlend
        mode="normal"
        in="SourceGraphic"
        in2="effect1_dropShadow_56_21"
        result="shape"></feBlend>
    </filter>
    <linearGradient
      id="paint0_linear_56_21"
      x1="378.775"
      y1="174.368"
      x2="567.226"
      y2="178.059"
      gradientUnits="userSpaceOnUse"
    >
      <stop offset="0.393884" stop-color="#999999"></stop>
      <stop offset="0.430124" stop-color="white"></stop>
    </linearGradient>
    <linearGradient
      id="paint1_linear_56_21"
      x1="472.19"
      y1="83.8397"
      x2="411.687"
      y2="49.7687"
      gradientUnits="userSpaceOnUse"
    >
      <stop offset="0.533971" stop-color="white"></stop>
      <stop offset="0.779919" stop-color="#292929"></stop>
    </linearGradient>
    <linearGradient
      id="paint2_linear_56_21"
      x1="351.534"
      y1="203.232"
      x2="411.361"
      y2="236.913"
      gradientUnits="userSpaceOnUse"
    >
      <stop stop-color="#999999"></stop>
      <stop offset="0.120407" stop-color="white"></stop>
    </linearGradient>
    <linearGradient
      id="paint3_linear_56_21"
      x1="257.5"
      y1="82.5"
      x2="323.127"
      y2="46.9625"
      gradientUnits="userSpaceOnUse"
    >
      <stop stop-color="#999999"></stop>
      <stop offset="0.207324" stop-color="white"></stop>
    </linearGradient>
    <linearGradient
      id="paint4_linear_56_21"
      x1="356.225"
      y1="172.211"
      x2="167.774"
      y2="175.902"
      gradientUnits="userSpaceOnUse"
    >
      <stop offset="0.569876" stop-color="white"></stop>
      <stop offset="0.606116" stop-color="#999999"></stop>
    </linearGradient>
    <linearGradient
      id="paint5_linear_56_21"
      x1="383.466"
      y1="201.075"
      x2="323.639"
      y2="234.756"
      gradientUnits="userSpaceOnUse"
    >
      <stop offset="0.435109" stop-color="white"></stop>
      <stop offset="0.665455" stop-color="#999999"></stop>
    </linearGradient>
    <linearGradient
      id="paint6_linear_56_21"
      x1="123.858"
      y1="52.4536"
      x2="288.864"
      y2="136.887"
      gradientUnits="userSpaceOnUse"
    >
      <stop offset="0.393884" stop-color="#999999"></stop>
      <stop offset="0.430124" stop-color="white"></stop>
    </linearGradient>
    <linearGradient
      id="paint7_linear_56_21"
      x1="155.216"
      y1="201.023"
      x2="93.5983"
      y2="235.121"
      gradientUnits="userSpaceOnUse"
    >
      <stop offset="0.280364" stop-color="white"></stop>
      <stop offset="0.797342" stop-color="#999999"></stop>
    </linearGradient>
    <linearGradient
      id="paint8_linear_56_21"
      x1="126.671"
      y1="42.4925"
      x2="-3.95608"
      y2="112.865"
      gradientUnits="userSpaceOnUse"
    >
      <stop offset="0.455" stop-color="#006BCD"></stop>
      <stop offset="0.755" stop-color="#003667"></stop>
    </linearGradient>
    <clipPath id="clip0_56_21">
      <rect width="500" height="275" fill="white"></rect>
    </clipPath>
  </defs>
</svg>