<svg xmlns="http://www.w3.org/2000/svg" width="500" viewBox="0 0 375 375" height="500" version="1.0"><defs><clipPath id="a"><path d="M207 79.75h143v174H207Zm0 0"/></clipPath><clipPath id="b"><path d="M160.625 80H219v173.75h-58.375Zm0 0"/></clipPath><clipPath id="c"><path d="M326 122h31.125v131.75H326Zm0 0"/></clipPath><clipPath id="d"><path d="M58 142h93v118H58Zm0 0"/></clipPath><clipPath id="e"><path d="m-36.672 164.293 77.176-98.2 120.934 95.044-77.18 98.199Zm0 0"/></clipPath><clipPath id="f"><path d="m-36.672 164.293 77.176-98.2 120.934 95.044-77.18 98.199Zm0 0"/></clipPath><clipPath id="g"><path d="M18 66h49v95H18Zm0 0"/></clipPath><clipPath id="h"><path d="m-36.672 164.293 77.176-98.2 120.934 95.044-77.18 98.199Zm0 0"/></clipPath><clipPath id="i"><path d="m-36.672 164.293 77.176-98.2 120.934 95.044-77.18 98.199Zm0 0"/></clipPath><clipPath id="j"><path d="M105 66h100v132H105Zm0 0"/></clipPath><clipPath id="k"><path d="m177.098 66.027 46.535 73.73-91.012 57.446-46.535-73.734Zm0 0"/></clipPath><clipPath id="l"><path d="m204.488 109.43-27.39-43.403-71.852 87.766 27.39 43.398Zm0 0"/></clipPath></defs><g clip-path="url(#a)"><path fill="#fff" d="M348.336 111.621c-13.07 20.672-26.004 41.434-38.977 62.164-8.09 12.926-16.175 25.856-24.273 38.77-8.254 13.168-16.555 26.324-24.785 39.515-.977 1.563-1.617 1.754-2.645.114a160040.98 160040.98 0 0 0-45.511-72.684c-1.184-1.887-2.301-3.824-3.586-5.652-.918-1.301-.801-2.383.015-3.676 5.39-8.55 10.735-17.14 16.078-25.73.313-.5.5-1.083.735-1.63l.761.524c3.704 5.91 7.418 11.828 11.125 17.734 6.735 10.715 13.457 21.434 20.2 32.145 1.363 2.168 1.675 2.125 3.078-.113a6258.678 6258.678 0 0 1 12.953-20.567c.148-.25.281-.484.383-.722l25.984-41.477.375-.602c4.844-7.668 9.617-15.34 14.422-23.023l.176-.281c.578-.938 1.172-1.875 1.746-2.817 4.973-7.937 9.96-15.883 15.074-23.863 1.621 2.52 3.02 4.672 4.387 6.84 4.054 6.422 7.992 12.91 12.18 19.234 1.382 2.094 1.496 3.602.105 5.797Zm0 0"/></g><g clip-path="url(#b)"><path fill="#fff" d="M160.965 254.066h31.144c-.043-40.336-.047-69.48-.058-98.617v-6.336c.277-.062.55-.125.828-.191.367.523.758 1.031 1.098 1.574 1.867 2.953 3.742 5.906 5.574 8.887.816 1.328 1.554 1.512 2.445.09 5.324-8.52 10.621-17.051 16.02-25.52.922-1.441.78-2.453-.075-3.82-9.992-15.856-19.918-31.758-29.89-47.63-.485-.773-1.192-1.405-1.977-2.316-.586.801-1.004 1.301-1.347 1.844-6.497 10.324-12.993 20.645-19.47 30.98-2.468 3.95-4.476 7.762-4.448 12.91.234 38.915.168 77.84.156 128.145Zm0 0"/></g><g clip-path="url(#c)"><path fill="#fff" d="M326.207 254.066h30.926c.004-51.18.008-90.523-.008-129.863 0-.676-.203-1.351-.309-2.023a31.48 31.48 0 0 0-.644-.043c-.656.965-1.348 1.914-1.969 2.906-8.285 13.254-16.469 26.566-24.894 39.727-2.176 3.394-3.243 6.71-3.22 10.804.153 22.356.122 44.707.118 78.492Zm0 0"/></g><path fill="#fff" d="m316.602 103.625-1.758 2.809c.578-.938 1.172-1.875 1.746-2.813Zm0 0"/><g clip-path="url(#d)"><g clip-path="url(#e)"><g clip-path="url(#f)"><path fill="#fff" d="m115.352 170.445-10.993 13.985-11 13.996-6.62-16.524-6.63-16.52-21.992 27.985 6.621 16.524 6.621 16.527 6.614 16.52 6.625 16.519 10.996-13.992 11.004-14 10.996-13.988 10.996-13.993 11.004-14 11-14-6.617-16.511-6.622-16.528-11.003 14Zm0 0"/></g></g></g><g clip-path="url(#g)"><g clip-path="url(#h)"><g clip-path="url(#i)"><path fill="#004aad" d="m66.871 132.328-6.621-16.523-6.621-16.512-6.621-16.527-6.617-16.528-11.004 14L18.39 94.23l6.62 16.524 6.622 16.527 6.625 16.52 6.613 16.52 10.996-13.993Zm0 0"/></g></g></g><g clip-path="url(#j)"><g clip-path="url(#k)"><g clip-path="url(#l)"><path fill="#fff" d="m177.098 66.027 46.535 73.73-91.012 57.446-46.535-73.734Zm0 0"/></g></g></g></svg>